<?xml version="1.0" encoding="utf-8" ?><svg xmlns="http://www.w3.org/2000/svg" xmlns:xlink="http://www.w3.org/1999/xlink" width="353" height="353" viewBox="0 0 353 353"><path fill="#C4613A" transform="scale(0.344727 0.344727)" d="M224 608Q265.661 608 322.081 507.074Q362.298 435.131 390.383 405.911Q442.2 352 512 352Q581.8 352 633.617 405.911Q661.702 435.131 701.919 507.074Q758.339 608 800 608Q800.786 608 801.57 608.039Q802.355 608.077 803.137 608.154Q803.918 608.231 804.695 608.346Q805.472 608.462 806.243 608.615Q807.013 608.768 807.775 608.959Q808.537 609.15 809.289 609.378Q810.041 609.606 810.78 609.871Q811.52 610.135 812.246 610.436Q812.972 610.736 813.682 611.072Q814.392 611.408 815.085 611.779Q815.777 612.149 816.451 612.553Q817.125 612.957 817.778 613.393Q818.431 613.829 819.062 614.297Q819.693 614.765 820.301 615.264Q820.908 615.762 821.49 616.29Q822.072 616.817 822.627 617.373Q823.183 617.928 823.71 618.51Q824.238 619.092 824.736 619.699Q825.235 620.307 825.703 620.938Q826.171 621.568 826.607 622.222Q827.043 622.875 827.447 623.549Q827.851 624.222 828.221 624.915Q828.592 625.608 828.928 626.318Q829.263 627.028 829.564 627.754Q829.865 628.48 830.129 629.219Q830.394 629.959 830.622 630.711Q830.85 631.463 831.041 632.225Q831.232 632.987 831.385 633.757Q831.538 634.528 831.654 635.305Q831.769 636.082 831.846 636.863Q831.923 637.645 831.961 638.43Q832 639.214 832 640Q832 640.786 831.961 641.57Q831.923 642.355 831.846 643.137Q831.769 643.918 831.654 644.695Q831.538 645.472 831.385 646.243Q831.232 647.013 831.041 647.775Q830.85 648.537 830.622 649.289Q830.394 650.041 830.129 650.78Q829.865 651.52 829.564 652.246Q829.263 652.972 828.928 653.682Q828.592 654.392 828.221 655.085Q827.851 655.777 827.447 656.451Q827.043 657.125 826.607 657.778Q826.171 658.431 825.703 659.062Q825.235 659.693 824.736 660.301Q824.238 660.908 823.71 661.49Q823.183 662.072 822.627 662.627Q822.072 663.183 821.49 663.71Q820.908 664.238 820.301 664.736Q819.693 665.235 819.062 665.703Q818.431 666.171 817.778 666.607Q817.125 667.043 816.451 667.447Q815.777 667.851 815.085 668.221Q814.392 668.592 813.682 668.928Q812.972 669.263 812.246 669.564Q811.52 669.865 810.78 670.129Q810.041 670.394 809.289 670.622Q808.537 670.85 807.775 671.041Q807.013 671.232 806.243 671.385Q805.472 671.538 804.695 671.654Q803.918 671.769 803.137 671.846Q802.355 671.923 801.57 671.961Q800.786 672 800 672Q745.427 672 703.241 625.417Q681.063 600.926 646.056 538.303Q609.855 473.546 587.474 450.26Q554.545 416 512 416Q469.455 416 436.525 450.26Q414.145 473.545 377.944 538.303Q342.937 600.926 320.759 625.417Q278.573 672 224 672Q223.214 672 222.43 671.961Q221.645 671.923 220.863 671.846Q220.082 671.769 219.305 671.654Q218.528 671.538 217.757 671.385Q216.987 671.232 216.225 671.041Q215.463 670.85 214.711 670.622Q213.959 670.394 213.22 670.129Q212.48 669.865 211.754 669.564Q211.028 669.263 210.318 668.928Q209.608 668.592 208.915 668.221Q208.222 667.851 207.549 667.447Q206.875 667.043 206.222 666.607Q205.569 666.171 204.938 665.703Q204.307 665.235 203.699 664.736Q203.092 664.238 202.51 663.71Q201.928 663.183 201.373 662.627Q200.817 662.072 200.29 661.49Q199.762 660.908 199.264 660.301Q198.765 659.693 198.297 659.062Q197.829 658.431 197.393 657.778Q196.957 657.125 196.553 656.451Q196.149 655.777 195.779 655.085Q195.408 654.392 195.072 653.682Q194.736 652.972 194.436 652.246Q194.135 651.52 193.871 650.78Q193.606 650.041 193.378 649.289Q193.15 648.537 192.959 647.775Q192.768 647.013 192.615 646.243Q192.462 645.472 192.346 644.695Q192.231 643.918 192.154 643.137Q192.077 642.355 192.039 641.57Q192 640.786 192 640Q192 639.214 192.039 638.43Q192.077 637.645 192.154 636.863Q192.231 636.082 192.346 635.305Q192.462 634.528 192.615 633.757Q192.768 632.987 192.959 632.225Q193.15 631.463 193.378 630.711Q193.606 629.959 193.871 629.219Q194.135 628.48 194.436 627.754Q194.736 627.028 195.072 626.318Q195.408 625.608 195.779 624.915Q196.149 624.222 196.553 623.549Q196.957 622.875 197.393 622.222Q197.829 621.568 198.297 620.938Q198.765 620.307 199.264 619.699Q199.762 619.092 200.29 618.51Q200.817 617.928 201.373 617.373Q201.928 616.817 202.51 616.29Q203.092 615.762 203.699 615.264Q204.307 614.765 204.938 614.297Q205.569 613.829 206.222 613.393Q206.875 612.957 207.549 612.553Q208.222 612.149 208.915 611.779Q209.608 611.408 210.318 611.072Q211.028 610.736 211.754 610.436Q212.48 610.135 213.219 609.871Q213.959 609.606 214.711 609.378Q215.463 609.15 216.225 608.959Q216.987 608.768 217.757 608.615Q218.528 608.462 219.305 608.346Q220.082 608.231 220.863 608.154Q221.645 608.077 222.43 608.039Q223.214 608 224 608Z"/><path fill="#C4613A" fill-opacity="0.34901962" transform="scale(0.344727 0.344727)" d="M224 352Q278.573 352 320.759 398.584Q342.937 423.074 377.944 485.697Q414.145 550.455 436.525 573.74Q469.455 608 512 608Q554.545 608 587.474 573.74Q609.855 550.454 646.056 485.697Q681.063 423.074 703.241 398.584Q745.427 352 800 352Q800.786 352 801.57 352.039Q802.355 352.077 803.137 352.154Q803.918 352.231 804.695 352.346Q805.472 352.462 806.243 352.615Q807.013 352.768 807.775 352.959Q808.537 353.15 809.289 353.378Q810.041 353.606 810.78 353.871Q811.52 354.135 812.246 354.436Q812.972 354.736 813.682 355.072Q814.392 355.408 815.085 355.779Q815.777 356.149 816.451 356.553Q817.125 356.957 817.778 357.393Q818.431 357.829 819.062 358.297Q819.693 358.765 820.301 359.264Q820.908 359.762 821.49 360.29Q822.072 360.817 822.627 361.373Q823.183 361.928 823.71 362.51Q824.238 363.092 824.736 363.699Q825.235 364.307 825.703 364.938Q826.171 365.569 826.607 366.222Q827.043 366.875 827.447 367.549Q827.851 368.223 828.221 368.915Q828.592 369.608 828.928 370.318Q829.263 371.028 829.564 371.754Q829.865 372.48 830.129 373.219Q830.394 373.959 830.622 374.711Q830.85 375.463 831.041 376.225Q831.232 376.987 831.385 377.757Q831.538 378.528 831.654 379.305Q831.769 380.082 831.846 380.863Q831.923 381.645 831.961 382.43Q832 383.214 832 384Q832 384.786 831.961 385.57Q831.923 386.355 831.846 387.137Q831.769 387.918 831.654 388.695Q831.538 389.472 831.385 390.243Q831.232 391.013 831.041 391.775Q830.85 392.537 830.622 393.289Q830.394 394.041 830.129 394.78Q829.865 395.52 829.564 396.246Q829.263 396.972 828.928 397.682Q828.592 398.392 828.221 399.085Q827.851 399.777 827.447 400.451Q827.043 401.125 826.607 401.778Q826.171 402.431 825.703 403.062Q825.235 403.693 824.736 404.301Q824.238 404.908 823.71 405.49Q823.183 406.072 822.627 406.627Q822.072 407.183 821.49 407.71Q820.908 408.238 820.301 408.736Q819.693 409.235 819.062 409.703Q818.431 410.171 817.778 410.607Q817.125 411.043 816.451 411.447Q815.777 411.851 815.085 412.221Q814.392 412.592 813.682 412.928Q812.972 413.263 812.246 413.564Q811.52 413.865 810.78 414.129Q810.041 414.394 809.289 414.622Q808.537 414.85 807.775 415.041Q807.013 415.232 806.243 415.385Q805.472 415.538 804.695 415.654Q803.918 415.769 803.137 415.846Q802.355 415.923 801.57 415.961Q800.786 416 800 416Q758.339 416 701.919 516.926Q661.702 588.869 633.617 618.089Q581.8 672 512 672Q442.2 672 390.383 618.089Q362.298 588.869 322.081 516.926Q265.661 416 224 416Q223.214 416 222.43 415.961Q221.645 415.923 220.863 415.846Q220.082 415.769 219.305 415.654Q218.528 415.538 217.757 415.385Q216.987 415.232 216.225 415.041Q215.463 414.85 214.711 414.622Q213.959 414.394 213.22 414.129Q212.48 413.865 211.754 413.564Q211.028 413.263 210.318 412.928Q209.608 412.592 208.915 412.221Q208.222 411.851 207.549 411.447Q206.875 411.043 206.222 410.607Q205.569 410.171 204.938 409.703Q204.307 409.235 203.699 408.736Q203.092 408.238 202.51 407.71Q201.928 407.183 201.373 406.627Q200.817 406.072 200.29 405.49Q199.762 404.908 199.264 404.301Q198.765 403.693 198.297 403.062Q197.829 402.431 197.393 401.778Q196.957 401.125 196.553 400.451Q196.149 399.777 195.779 399.085Q195.408 398.392 195.072 397.682Q194.736 396.972 194.436 396.246Q194.135 395.52 193.871 394.78Q193.606 394.041 193.378 393.289Q193.15 392.537 192.959 391.775Q192.768 391.013 192.615 390.243Q192.462 389.472 192.346 388.695Q192.231 387.918 192.154 387.137Q192.077 386.355 192.039 385.57Q192 384.786 192 384Q192 383.214 192.039 382.43Q192.077 381.645 192.154 380.863Q192.231 380.082 192.346 379.305Q192.462 378.528 192.615 377.757Q192.768 376.987 192.959 376.225Q193.15 375.463 193.378 374.711Q193.606 373.959 193.871 373.22Q194.135 372.48 194.436 371.754Q194.736 371.028 195.072 370.318Q195.408 369.608 195.779 368.915Q196.149 368.222 196.553 367.549Q196.957 366.875 197.393 366.222Q197.829 365.569 198.297 364.938Q198.765 364.307 199.264 363.699Q199.762 363.092 200.29 362.51Q200.817 361.928 201.373 361.373Q201.928 360.817 202.51 360.29Q203.092 359.762 203.699 359.264Q204.307 358.765 204.938 358.297Q205.569 357.829 206.222 357.393Q206.875 356.957 207.549 356.553Q208.222 356.149 208.915 355.779Q209.608 355.408 210.318 355.072Q211.028 354.736 211.754 354.436Q212.48 354.135 213.219 353.871Q213.959 353.606 214.711 353.378Q215.463 353.15 216.225 352.959Q216.987 352.768 217.757 352.615Q218.528 352.462 219.305 352.346Q220.082 352.231 220.863 352.154Q221.645 352.077 222.43 352.039Q223.214 352 224 352Z"/></svg>