<svg version="1.1" id="Layer_1" xmlns="http://www.w3.org/2000/svg" xmlns:xlink="http://www.w3.org/1999/xlink" x="0px" y="0px"
	 width="100%" viewBox="0 0 1024 1024" enable-background="new 0 0 1024 1024" xml:space="preserve">
<path fill="#000000" opacity="1.000000" stroke="none" 
	d="
M260.993958,735.979126 
	C241.946426,711.216064 229.143829,683.651184 219.929382,654.391418 
	C210.200363,623.497681 204.639435,591.766235 201.480179,559.525085 
	C198.793640,532.108459 197.928375,504.652863 199.003525,477.196014 
	C200.826935,430.630798 206.718536,384.662445 223.427216,340.737305 
	C246.229431,280.792908 285.671875,236.306137 344.987885,210.268494 
	C377.126404,196.160812 410.738464,188.057755 445.446564,183.463425 
	C469.460541,180.284668 493.527222,178.864944 517.663147,179.102463 
	C568.406555,179.601807 618.320374,185.720917 666.197998,203.680145 
	C698.404968,215.761200 727.439148,232.913239 751.694092,257.677917 
	C777.664551,284.194183 794.966858,315.771423 806.251465,350.821564 
	C816.602661,382.972534 822.027588,416.041016 824.490234,449.703644 
	C825.816284,467.829712 826.574463,485.940155 826.266907,504.090912 
	C825.668030,539.426086 822.383789,574.467590 815.569824,609.213318 
	C808.961426,642.910583 799.290588,675.506653 783.071167,705.878967 
	C767.786682,734.500366 748.180786,759.475891 720.256836,776.979553 
	C698.293579,790.746826 674.289429,797.716431 648.376526,798.341125 
	C611.326111,799.234375 577.361145,789.025085 545.777222,770.120605 
	C539.578064,766.410156 538.788025,762.743713 543.241760,757.127197 
	C556.708069,740.145203 570.789185,723.693176 586.127319,708.355530 
	C591.126526,703.356506 592.906738,703.096619 599.459473,705.961731 
	C623.264221,716.370178 647.537476,719.567993 672.146118,709.300476 
	C691.398560,701.267761 704.447083,686.200745 715.036682,668.805908 
	C727.963440,647.571960 734.630920,624.034973 739.465576,599.957886 
	C744.287415,575.944946 746.613831,551.615906 747.966675,527.146667 
	C749.553223,498.450714 748.802429,469.851990 745.520325,441.355743 
	C741.983093,410.644073 735.699036,380.572357 722.000610,352.491730 
	C706.874695,321.484680 682.798767,299.894348 651.769165,285.671173 
	C625.146301,273.467926 596.907532,267.478302 567.966492,264.194061 
	C537.912903,260.783539 507.770050,260.249939 477.669281,262.478119 
	C440.298798,265.244446 403.746674,271.909119 369.519562,288.308136 
	C335.712128,304.506042 312.588562,330.413239 298.571991,364.863251 
	C287.557129,391.935516 281.966125,420.234985 279.122559,449.207275 
	C277.249359,468.292572 276.177582,487.427948 276.485809,506.568726 
	C277.081848,543.580200 280.134766,580.380615 289.480804,616.365173 
	C295.888977,641.038269 304.762360,664.650146 321.303558,684.633179 
	C344.664917,712.855408 374.477448,720.611694 409.289429,712.152283 
	C415.438171,710.658142 421.380859,708.464233 427.020355,705.485840 
	C445.228729,695.869324 449.063782,681.327026 437.643402,664.156067 
	C427.567535,649.006592 418.465637,633.316467 410.721588,616.853760 
	C394.887085,583.191772 385.278076,547.979858 383.558258,510.648102 
	C382.133759,479.726074 386.681946,450.219269 402.532257,423.167542 
	C420.545593,392.424194 447.882538,374.619019 482.180023,366.957886 
	C506.366058,361.555359 530.544189,362.211945 554.250427,369.419464 
	C598.805603,382.965881 625.784241,413.329102 637.144104,458.009918 
	C644.337830,486.304596 643.076050,514.725342 637.982727,543.219238 
	C627.335693,602.781738 599.124207,653.634827 561.002319,699.646301 
	C540.488953,724.404968 517.904602,746.933655 490.673737,764.359375 
	C463.647003,781.654419 434.412506,793.433899 402.410065,797.044556 
	C343.922241,803.643311 297.165222,782.338623 260.993958,735.979126 
M495.428833,446.860352 
	C476.766235,452.735901 466.833282,466.157349 463.366974,484.741882 
	C460.648560,499.316620 461.918793,513.945679 464.411896,528.432739 
	C470.514191,563.892090 484.934326,595.755432 506.559235,624.406006 
	C511.759003,631.295166 513.860718,631.347717 518.923523,624.579590 
	C534.597473,603.626404 546.995422,580.906250 554.694214,555.820007 
	C561.525696,533.560059 565.643311,510.932007 562.722046,487.481750 
	C560.033081,465.895508 547.528015,450.963837 527.307983,445.884644 
	C516.932190,443.278320 506.506622,443.935059 495.428833,446.860352 
z"/>
</svg>